<svg xmlns="http://www.w3.org/2000/svg" viewBox="0 0 293.36 120.51"><defs><style>.cls-1{fill:#231815;}</style></defs><title>アセット 2</title><g id="レイヤー_2" data-name="レイヤー 2"><g id="レイヤー_1-2" data-name="レイヤー 1"><path class="cls-1" d="M204.72,36c.57-.06,3.51.34,4.06.85a1.3,1.3,0,0,0,.26.26l1.79,1a8,8,0,0,0,.77.33c1.07.43.79,1.76.42,3-.31.8-1.57,2.06-1.57,2.8,0,.91-2.25,1.76-2.92,2.25A14,14,0,0,1,204.29,48c-.11,0-.23-.08-.34,0-1,.24-2.09.83-3.08,1.17a2.71,2.71,0,0,0-.38.18l-2.1,1.08a7.94,7.94,0,0,0-.69.42c-.42.3-1.14.85-1.54,1.21-.22.19-.42.39-.64.58-.57.45-.56.53-.71,1.63,0,.25-.27.43-.35.68-.2.57-.14,1.8-.45,2.09-.1.09,0,.2,0,.32-.05,1.29,1,2.88,2.1,2.81.82-.05,5.33.28,6.44-.27a1.54,1.54,0,0,1,.71-.24c1.35.08,2.66-.16,4.14-.09.28,0,.55-.2.83-.2.81,0,2.68-.4,2.9-.4,1.83,0,3.35-1.68,4.94-1.68a34.41,34.41,0,0,0,3.47-2c.39-.77,2.61-1.56,3.29-2.08,1.72-1.34,2.48-3.3,4.26-4.18.64-.31.89-1.45,1.92-1.45,1.8,0,1.13,1.16.69,2.49-.09.26-.29.47-.4.72-.4.94-1.24,2.71-1.43,3.16-.44.92-1,1.32-1.67,2.39-.07.13-.13.26-.2.4-.26.52-1.25,1.17-1.77,1.66a2,2,0,0,1-.74.39c-.9.28-2.37,2-3.18,2.4-.26.12-.5.32-.77.42a18.06,18.06,0,0,0-3.91,1.6,12.26,12.26,0,0,1-2.47,1.16,2.61,2.61,0,0,0-.48.09,7.51,7.51,0,0,1-2,.66c-.49,0-1.28.3-2.19.32-.26,0-1.05.58-1.3.52a22.32,22.32,0,0,0-3,.06.81.81,0,0,0-.34.13c-1,.54-6.89.36-7.8.36-2.46,0-4.94-.12-6.74-1a11.67,11.67,0,0,1-2.64-1.57,6.11,6.11,0,0,0-.92-.63,1.78,1.78,0,0,1-.65-.46c-.48-.7-.25-1.64-.37-2.73,0-.12-.12-.21-.18-.32a3.62,3.62,0,0,1,.36-2,1.63,1.63,0,0,0,.17-.35c.18-.83,0-2.12.24-3a1.81,1.81,0,0,1,.45-.75c.24-.28.37-.68.61-1a4.17,4.17,0,0,0,.49-.65,5.51,5.51,0,0,0,.36-1,3.15,3.15,0,0,1,.35-.76,9.78,9.78,0,0,0,.36-1c.09-.27.31-.5.34-.79s.43-.85.43-1.23a.94.94,0,0,1,.33-.61c.51-.59,1.1-2.15,1.84-2.15.58,0,.74-1.69,1.35-1.69s2.05-1.42,2.58-1.79a12.85,12.85,0,0,1,1.13-.68c.33-.16,1.37-.48,1.52-.79.44-.89,2.08-1.75,3-2.17a2,2,0,0,0,.35-.23A14.37,14.37,0,0,1,204.19,36l.31,0,.23,0"/><path class="cls-1" d="M181.88,42.13a1,1,0,0,0-.34-.24,2,2,0,0,0-1.59,0,2,2,0,0,1-.27.26c-1,.58-2.36,2.31-3.27,2.33s-1.89,1.61-2.83,1.61a4.44,4.44,0,0,0-1.35,1.23c0,.43-1.22.68-1.46.79-1.36.61-2.33,1.75-3.61,2.47-1.81.89-3.88,2.22-5.61,3.27-.23.13-.4.33-.61.48a20,20,0,0,1-2.72,1.48l-.78.37-1.39.64c-.23.1-.36.36-.6.44a.74.74,0,0,1-1-.65.41.41,0,0,1,.13-.34,25,25,0,0,0,1.79-2.7,3.61,3.61,0,0,1,.27-.35,5,5,0,0,0,.82-2.08c0-.57.9-1,.9-1.46,0-.09,1.53-2,1.86-2.53a2.57,2.57,0,0,0,.11-.35c.57-1.74.41-5-1.71-5.3a1.83,1.83,0,0,0-.85.16c-.17.06-3.83.24-3.79.25-1-.06-2.2.6-3.18.76-.26,0-.24.1-.48.18-.62.2-2,.55-2.07,1.16l0,.06c-.19.06-1,.56-1,.54-.2.18-.43.63-.66.79-.83.58-2,1.27-2,2.77,0,2.08,1.14,3,3.17,2.95.46,0,2.12-.93,2.08-.18a1.73,1.73,0,0,1-.33.81c-.24.37-.62.88-.7,1.08-.5,1-.61,2.35-1.35,3.26a4.79,4.79,0,0,0-1,1.52c0,.1-.13.17-.18.25a12.3,12.3,0,0,0-.44,3.07,3.38,3.38,0,0,0-.07.83c.13,1.15.67,3.71,1.23,4.23.09.09.22.14.3.24,1.17,1.39,4.23,1.16,6,.37.24-.11.36-.37.54-.57a6.13,6.13,0,0,1,2.27-1.4c.92,0,1.37-1,1.94-1.42.23-.16.5-.23.74-.36a17.47,17.47,0,0,0,3.2-1.74.93.93,0,0,1,.25-.28c1.17-.64,1.8-1.51,3-1.92a2.77,2.77,0,0,0,.74-.42c.59-.47,1.85-1.33,2.33-1.71a1.51,1.51,0,0,1,.36-.22c1-.47,1.85-1.44,3.24-1.41s2-1.87,3-1.87c.28,0,.89-.9,1.24-1.12a17.22,17.22,0,0,1,1.75-1,3.8,3.8,0,0,0,.75-.44,4.57,4.57,0,0,0,1.55-1.87c.26-.45.88-2.92,1.31-3.82a3.18,3.18,0,0,0,.34-.76c.14-.68.31-1.83,0-2.17"/><path class="cls-1" d="M168.86,2.3c-.38-.17-.66-1.63-1.36-1.63-1,0-2.08-.63-3.13-.67l-.25.07c-.16,0-.36,0-.47,0s-.18.16-.3.19c-.88.17-3.25.57-3.72,1.19a2,2,0,0,1-.24.33,6.71,6.71,0,0,0-1.56,2.38c-.39,3.36-2.07,6.48-2.71,9.91-.05.25.05.52,0,.76a33.63,33.63,0,0,1-1.82,3.48c0,1-1.23,2-1.5,3a1.12,1.12,0,0,1-.19.41c-.62.89-2.95,4.46-2.95,5.08a14.07,14.07,0,0,1-1.84,2.29,2,2,0,0,1-.35.27A10.62,10.62,0,0,0,145,31.35a32.22,32.22,0,0,0-3,5.13c-.05.12-.19.18-.29.28-.53.53-1.21,2.69-1.72,3a13,13,0,0,0-1.83,2.36c-.58.78-.87,2.87-1.77,3.31-.52.27-.54,1.14-.77,1.63s-1.12,1.16-1.11,1.58c0,.75-1.64,2.48-2.12,3.2a21.4,21.4,0,0,1-1.46,2.42,3.38,3.38,0,0,0-.46.6c-.23.43-.55.79-.74,1.19a2.73,2.73,0,0,0-.21.45c-.16.59-.36,2.2-.76,2.59a8.14,8.14,0,0,0-1.54,3.14c0,.65-1.44,2.13-1.44,3s-1.37,1.87-1.62,2.6a.81.81,0,0,1-.25.34c-.93.72-.63,2.89-1.67,3.41s-.79,3,.5,3.58a1.3,1.3,0,0,0,.43.12c1,.07,5.35-.24,5.78-1.32a.53.53,0,0,1,.18-.27A2.9,2.9,0,0,0,130.24,72c.17-.31.47-.47.68-.79.26-.55.05-1.17.16-1.82,0-.14.15-.22.24-.31a13.75,13.75,0,0,0,1.34-3c.33-.78,1-1.79,1.45-2.64a3.56,3.56,0,0,1,.24-.32c.39-.52,1.35-2.22,1.74-2.83a1.54,1.54,0,0,1,.3-.28,6.77,6.77,0,0,0,.4-.57c.09-.11.22-.17.28-.29.16-.34.49-1.07.68-1.52.1-.25.21-.49.33-.73.25-.5.65-1.39.78-1.61.35-.54.61-1.17.89-1.57a6.61,6.61,0,0,0,1.43-2.81.42.42,0,0,1,.18-.33c1.18-.72,1.41-2,2-3.15a29.94,29.94,0,0,0,1.79-2.69,2.91,2.91,0,0,1,.2-.42c1.16-2,1.65-4.37,3.21-6,.63-.64,1.4-1.17,2-1.84a3.15,3.15,0,0,0,.42-.68c.61-1.24,1.64-2.28,2.27-3.44.79-1.14.85-2.26,1.42-3.37a1.07,1.07,0,0,1,.31-.31,8.48,8.48,0,0,0,1.75-2.58v0l.05.1a22.29,22.29,0,0,1,1.65-2.64A2.08,2.08,0,0,0,159,23c.29-.51.86-1.33,1-1.55a11.89,11.89,0,0,1,.76-2,1.15,1.15,0,0,1,.3-.25,15.55,15.55,0,0,0,2.49-2.62c.09-.12.17-.25.25-.39a25.39,25.39,0,0,0,1.28-4.1c0-.8,1.67-1.63,1.66-2.59s1.56-2,1.56-3c0-.83,2.11-3.54.63-4.21"/><path class="cls-1" d="M127.49,42.13a1.14,1.14,0,0,0-.35-.24,2,2,0,0,0-1.59,0,2,2,0,0,1-.27.26c-1,.58-2.35,2.31-3.27,2.33s-1.89,1.61-2.83,1.61a4.41,4.41,0,0,0-1.34,1.23c0,.43-1.23.68-1.47.79-1.36.61-2.33,1.75-3.6,2.47-1.82.89-3.9,2.22-5.62,3.27-.22.13-.4.33-.61.48a19.44,19.44,0,0,1-2.72,1.48l-.78.37-1.39.64c-.24.1-.36.36-.61.44a.74.74,0,0,1-1-.65.43.43,0,0,1,.14-.34,26.25,26.25,0,0,0,1.8-2.7,2.53,2.53,0,0,1,.26-.35,5,5,0,0,0,.82-2.08c0-.57.9-1,.9-1.46,0-.09,1.54-2,1.87-2.53a2,2,0,0,0,.1-.35c.57-1.74.4-5-1.7-5.3a1.79,1.79,0,0,0-.85.16c-.17.06-3.83.24-3.8.25-1-.06-2.19.6-3.18.76-.25,0-.23.1-.48.18C95.36,43,94,43.4,93.9,44l-.05.06c-.2.06-1,.56-1,.54-.2.18-.43.63-.66.79-.83.58-2,1.27-2,2.77,0,2.08,1.14,3,3.18,2.95.46,0,2.11-.93,2.07-.18a1.69,1.69,0,0,1-.33.81c-.24.37-.61.88-.7,1.08-.51,1-.61,2.35-1.35,3.26a4.79,4.79,0,0,0-1,1.52c0,.1-.13.17-.19.25a12.34,12.34,0,0,0-.44,3.07,4,4,0,0,0-.07.83c.13,1.15.67,3.71,1.24,4.23.09.09.22.14.3.24,1.18,1.39,4.23,1.16,6,.37.25-.11.37-.37.54-.57a6.1,6.1,0,0,1,2.27-1.4c.92,0,1.37-1,1.93-1.42.23-.16.51-.23.74-.36a17.1,17.1,0,0,0,3.19-1.74,1.07,1.07,0,0,1,.26-.28c1.17-.64,1.81-1.51,3-1.92a2.79,2.79,0,0,0,.74-.42c.6-.47,1.85-1.33,2.33-1.71a1.71,1.71,0,0,1,.36-.22c1-.47,1.85-1.44,3.24-1.41s2-1.87,3-1.87c.27,0,.89-.9,1.23-1.12a18,18,0,0,1,1.75-1,3.85,3.85,0,0,0,.74-.44,4.45,4.45,0,0,0,1.55-1.87c.26-.45.89-2.92,1.31-3.82a3.35,3.35,0,0,0,.35-.76c.13-.68.3-1.83,0-2.17"/><path class="cls-1" d="M114.46,2.3c-.38-.17-.66-1.63-1.36-1.63C112.1.67,111,0,110,0l-.24.07c-.16,0-.36,0-.46,0s-.19.16-.3.19c-.88.17-3.25.57-3.72,1.19a2.17,2.17,0,0,1-.24.33,6.72,6.72,0,0,0-1.56,2.38c-.39,3.36-2.06,6.48-2.71,9.91-.05.25.05.52,0,.76a33.63,33.63,0,0,1-1.82,3.48c0,1-1.23,2-1.5,3a1.25,1.25,0,0,1-.19.41c-.63.89-3,4.46-2.95,5.08a14.7,14.7,0,0,1-1.85,2.29,1.71,1.71,0,0,1-.35.27,10.1,10.1,0,0,0-1.47,1.93,31.5,31.5,0,0,0-3,5.13c-.06.12-.2.18-.29.28-.53.53-1.21,2.69-1.72,3a13.43,13.43,0,0,0-1.83,2.36c-.57.78-.87,2.87-1.77,3.31-.52.27-.54,1.14-.77,1.63S80,48.24,80,48.66c0,.75-1.63,2.48-2.11,3.2a23.33,23.33,0,0,1-1.47,2.42,3.34,3.34,0,0,0-.46.6c-.23.43-.54.79-.74,1.19a2.23,2.23,0,0,0-.2.45c-.17.59-.37,2.2-.77,2.59a8.12,8.12,0,0,0-1.55,3.14c0,.65-1.44,2.13-1.43,3s-1.37,1.87-1.62,2.6a.81.81,0,0,1-.25.34c-.93.72-.62,2.89-1.67,3.41s-.79,3,.5,3.58a1.29,1.29,0,0,0,.43.12c1,.07,5.35-.24,5.77-1.32a.53.53,0,0,1,.18-.27A3,3,0,0,0,75.85,72c.17-.31.46-.47.67-.79.26-.55.06-1.17.16-1.82,0-.14.15-.22.25-.31a14.18,14.18,0,0,0,1.33-3c.33-.78,1-1.79,1.46-2.64a2.51,2.51,0,0,1,.23-.32c.39-.52,1.35-2.22,1.74-2.83A1.62,1.62,0,0,1,82,60c.16-.15.27-.42.4-.57s.22-.17.28-.29c.16-.34.5-1.07.68-1.52.09-.25.2-.49.32-.73.25-.5.65-1.39.79-1.61.34-.54.61-1.17.88-1.57a6.5,6.5,0,0,0,1.43-2.81.42.42,0,0,1,.19-.33c1.19-.72,1.41-2,2-3.15a29.91,29.91,0,0,0,1.79-2.69,2.29,2.29,0,0,1,.21-.42c1.16-2,1.65-4.37,3.2-6,.63-.64,1.4-1.17,2-1.84a2.79,2.79,0,0,0,.41-.68c.61-1.24,1.65-2.28,2.27-3.44.79-1.14.85-2.26,1.42-3.37a1.08,1.08,0,0,1,.31-.31,8.47,8.47,0,0,0,1.75-2.58v0l.05.1a23.37,23.37,0,0,1,1.65-2.64,2.06,2.06,0,0,0,.51-.52c.29-.51.86-1.33,1-1.55a11.84,11.84,0,0,1,.77-2,1,1,0,0,1,.3-.25,15.24,15.24,0,0,0,2.49-2.62c.09-.12.17-.25.25-.39a24.6,24.6,0,0,0,1.28-4.1c0-.8,1.68-1.63,1.66-2.59s1.56-2,1.55-3c0-.83,2.12-3.54.63-4.21"/><polyline class="cls-1" points="154.89 26.06 154.89 26.08 154.89 26.06"/><path class="cls-1" d="M5.12,100a8.09,8.09,0,0,0,.24-1.33c0-1.29-1-1.61-2.83-1.61l.17-.59,6.41-.56L4.74,113.06l.07.07c1.44-3.11,5.08-9.4,8.88-9.4A2,2,0,0,1,15.85,106a12,12,0,0,1-.41,1.92L13,116.73a6,6,0,0,0-.19,1.08c0,.25.13.56.4.56.72,0,2.37-1.5,3.39-2.41l.48.38c-1.14,1-4.06,4.16-6,4.16a1.42,1.42,0,0,1-1.43-1.61,9.47,9.47,0,0,1,.42-2.17l2.35-8.39a7,7,0,0,0,.32-1.47c0-.56-.23-1-.84-1-2.93,0-7.93,10.34-8.9,14.29H0L5.12,100"/><path class="cls-1" d="M31.69,112.85l-.07-.07c-1.78,4.05-5.1,7.72-8,7.72-1.56,0-2.47-1-2.41-2.79a17.48,17.48,0,0,1,.63-2.9l2.08-7.3a6.07,6.07,0,0,0,.19-1.08c0-.24-.13-.56-.36-.56-.76,0-2.41,1.5-3.43,2.41l-.44-.39c1.14-1,4.06-4.16,6-4.16a1.42,1.42,0,0,1,1.43,1.61,9.88,9.88,0,0,1-.42,2.16l-2.35,8.39a7,7,0,0,0-.32,1.47c0,.56.23,1,.84,1,2.66,0,8-7.86,8.9-14.29h3l-3.18,12.65a6,6,0,0,0-.19,1.08c0,.35.13.56.36.56.76,0,2.41-1.5,3.39-2.41l.48.38c-1.14,1-4.06,4.16-6,4.16a1.44,1.44,0,0,1-1.43-1.61,11.75,11.75,0,0,1,.38-2.17l1-3.88"/><path class="cls-1" d="M44.23,107.51a6.36,6.36,0,0,0,.19-1.08c0-.31-.17-.56-.4-.56-.72,0-2.37,1.5-3.39,2.41l-.48-.39c1.14-1,4.06-4.16,6-4.16a1.42,1.42,0,0,1,1.46,1.61,12.47,12.47,0,0,1-.42,2.16l-1.24,4.93.07.07c1.43-2.76,4.45-8.77,8.48-8.77A2,2,0,0,1,56.63,106,11.81,11.81,0,0,1,56.3,108l-1.14,4.47.07.07c1.23-2.52,4.57-8.77,8.52-8.77A2,2,0,0,1,65.91,106,12,12,0,0,1,65.5,108L63,116.73a6,6,0,0,0-.19,1.08c0,.25.13.56.36.56.76,0,2.41-1.5,3.43-2.41l.44.38c-1.14,1-4.06,4.16-6,4.16a1.42,1.42,0,0,1-1.43-1.61,11.92,11.92,0,0,1,.38-2.17l2.39-8.39a6.91,6.91,0,0,0,.32-1.47c0-.56-.23-1-.84-1-2.85,0-7.87,10.83-8.71,14.29h-3l3-11.81a7.92,7.92,0,0,0,.24-1.47c0-.56-.19-1-.84-1-2.4,0-6.52,7-8.67,14.29H41l3.22-12.65"/><path class="cls-1" d="M79.43,115l-.07-.07c-.89,1.54-3.2,5.63-6.62,5.63-3,0-3.61-2.24-3.54-4.23.12-3.49,4.16-12.54,9.68-12.54a2.69,2.69,0,0,1,2.86,1.89h.08l.32-1.54h3l-3.22,12.65a6,6,0,0,0-.19,1.08c0,.25.13.56.4.56.72,0,2.37-1.5,3.39-2.41l.48.38c-1.14,1-4.06,4.16-6,4.16a1.45,1.45,0,0,1-1.46-1.61,12.28,12.28,0,0,1,.42-2.17l.48-1.78m-5.3,3.77c3,0,7-7.51,7.09-11.46,0-1.08-.3-2.38-1.74-2.38-3.76,0-6.76,7.51-6.89,11.14C72.52,118.06,73.37,118.72,74.13,118.72Z"/><path class="cls-1" d="M92.31,107.51a6.27,6.27,0,0,0,.19-1.08c0-.24-.17-.56-.36-.56-.76,0-2.41,1.5-3.43,2.41l-.44-.39c1.14-1,4.06-4.16,6-4.16a1.42,1.42,0,0,1,1.43,1.61,9.7,9.7,0,0,1-.42,2.16l-1.41,5.55.07.07c1.44-3.11,5.12-9.4,8.92-9.4a2,2,0,0,1,2.12,2.31,11.32,11.32,0,0,1-.37,1.92l-2.47,8.77a4.09,4.09,0,0,0-.23,1.08c0,.25.17.56.4.56.76,0,2.41-1.5,3.39-2.41l.48.38c-1.14,1-4.06,4.16-6,4.16a1.45,1.45,0,0,1-1.46-1.61,9.43,9.43,0,0,1,.42-2.17l2.38-8.39a9.94,9.94,0,0,0,.28-1.47c0-.56-.27-1-.8-1-3,0-8,10.34-8.94,14.29h-3l3.22-12.65"/><path class="cls-1" d="M126.59,100a8.34,8.34,0,0,0,.24-1.33c0-1.29-1-1.61-2.83-1.61l.17-.59,6.4-.56-4.37,17.19.07.07c1.44-3.11,5.08-9.4,8.88-9.4a2,2,0,0,1,2.16,2.31,12.16,12.16,0,0,1-.41,1.92l-2.47,8.77a6.23,6.23,0,0,0-.19,1.08c0,.25.13.56.4.56.72,0,2.37-1.5,3.39-2.41l.48.38c-1.14,1-4.06,4.16-6,4.16a1.42,1.42,0,0,1-1.43-1.61,9.54,9.54,0,0,1,.42-2.17l2.35-8.39a7,7,0,0,0,.32-1.47c0-.56-.23-1-.84-1-2.93,0-7.93,10.34-8.9,14.29h-3L126.59,100"/><path class="cls-1" d="M152.88,119.7a19.11,19.11,0,0,1-5.24.8c-3.76,0-6.09-2-5.95-6,.17-4.75,2.73-10.72,9.61-10.72,2.51,0,4.75,1,4.67,3.28-.11,3.07-3.27,3.35-6.16,3.35h-4.1a18.45,18.45,0,0,0-.62,3.49c-.1,2.9.88,5.31,5.51,5.31a6.87,6.87,0,0,0,2.49-.45l-.22,1m-3.62-10.41c1.52,0,3.7-.35,3.77-2.51,0-1-.92-1.89-2.29-1.89-2.89,0-4.32,2.86-4.71,4.4Z"/><path class="cls-1" d="M167.3,115l-.07-.07c-.89,1.54-3.2,5.63-6.62,5.63-3,0-3.61-2.24-3.54-4.23.12-3.49,4.17-12.54,9.68-12.54a2.69,2.69,0,0,1,2.86,1.89h.08l.32-1.54h3l-3.22,12.65a6,6,0,0,0-.19,1.08c0,.25.13.56.4.56.72,0,2.37-1.5,3.39-2.41l.48.38c-1.14,1-4.06,4.16-6,4.16a1.45,1.45,0,0,1-1.46-1.61,12.1,12.1,0,0,1,.42-2.17l.48-1.78m-5.3,3.77c3,0,7-7.51,7.09-11.46,0-1.08-.3-2.38-1.74-2.38-3.76,0-6.76,7.51-6.89,11.14C160.39,118.06,161.24,118.72,162,118.72Z"/><path class="cls-1" d="M184.21,116.35c-1.14,1-4.06,4.16-6,4.16a1.45,1.45,0,0,1-1.46-1.61,12.1,12.1,0,0,1,.42-2.17L181.43,100a8,8,0,0,0,.24-1.33c0-1.29-1-1.61-2.79-1.61l.13-.59,6.41-.56-5.29,20.86a6.12,6.12,0,0,0-.19,1.08c0,.25.13.56.4.56.72,0,2.37-1.5,3.39-2.41l.48.38"/><path class="cls-1" d="M195.23,116.35c-1.18,1.15-4.25,4.16-6.23,4.16a1.49,1.49,0,0,1-1.58-1.61,12.1,12.1,0,0,1,.38-2.17l3-11.56H187.6l.26-1.08c3.5,0,5.34-1.68,6.45-5.21h1L194,104.09h5l-.27,1.08h-5l-3,11.56a6.31,6.31,0,0,0-.23,1.08.56.56,0,0,0,.55.56c.8,0,2.56-1.43,3.66-2.41l.48.38"/><path class="cls-1" d="M203.86,100a8.17,8.17,0,0,0,.24-1.33c0-1.29-1-1.61-2.83-1.61l.17-.59,6.4-.56-4.37,17.19.07.07c1.44-3.11,5.08-9.4,8.88-9.4a2,2,0,0,1,2.16,2.31,11.83,11.83,0,0,1-.41,1.92l-2.47,8.77a6,6,0,0,0-.19,1.08c0,.25.13.56.4.56.72,0,2.37-1.5,3.39-2.41l.48.38c-1.14,1-4.06,4.16-6,4.16a1.42,1.42,0,0,1-1.43-1.61,9.53,9.53,0,0,1,.42-2.17l2.35-8.39a7.09,7.09,0,0,0,.32-1.47c0-.56-.23-1-.84-1-2.93,0-7.92,10.34-8.9,14.29h-3L203.86,100"/><path class="cls-1" d="M241.56,119.67a15.33,15.33,0,0,1-5,.84c-4,0-6.54-2.06-6.4-6,.17-5,3.27-10.79,9.58-10.79,2.89,0,5.11,1.61,5,3.49a1.8,1.8,0,0,1-1.92,1.71c-3.08,0-.43-4.05-3.58-4.05-3.54,0-5.58,5.13-5.71,8.84-.15,4.16,2.13,5.45,5.43,5.45a11,11,0,0,0,2.83-.42l-.3.91"/><path class="cls-1" d="M256,115l-.08-.07c-.89,1.54-3.2,5.63-6.62,5.63-3,0-3.61-2.24-3.54-4.23.12-3.49,4.17-12.54,9.68-12.54a2.69,2.69,0,0,1,2.86,1.89h.08l.32-1.54h3l-3.22,12.65a6.43,6.43,0,0,0-.19,1.08c0,.25.13.56.4.56.72,0,2.37-1.5,3.39-2.41l.48.38c-1.14,1-4.06,4.16-6,4.16a1.45,1.45,0,0,1-1.46-1.61,12,12,0,0,1,.42-2.17L256,115m-5.31,3.77c3,0,7-7.51,7.1-11.46,0-1.08-.3-2.38-1.74-2.38-3.76,0-6.76,7.51-6.89,11.14C249.07,118.06,249.92,118.72,250.68,118.72Z"/><path class="cls-1" d="M269.05,107.51a5.82,5.82,0,0,0,.19-1.08c0-.24-.13-.56-.4-.56-.72,0-2.37,1.5-3.39,2.41l-.48-.39c1.14-1,4.06-4.16,6-4.16a1.45,1.45,0,0,1,1.47,1.61,12.6,12.6,0,0,1-.38,2.16l-.66,2.48.08.07c.78-1.57,3-6.32,6-6.32a1.57,1.57,0,0,1,1.77,1.64,1.84,1.84,0,0,1-1.85,1.75c-.87,0-1.23-.59-1.65-.59-1.1,0-4.48,4.26-6.86,13.62h-3l3.22-12.65"/><path class="cls-1" d="M290.25,119.7a19.13,19.13,0,0,1-5.23.8c-3.76,0-6.09-2-5.95-6,.17-4.75,2.73-10.72,9.61-10.72,2.51,0,4.76,1,4.67,3.28-.11,3.07-3.27,3.35-6.16,3.35h-4.1a18.29,18.29,0,0,0-.62,3.49c-.1,2.9.88,5.31,5.52,5.31a6.87,6.87,0,0,0,2.49-.45l-.23,1m-3.63-10.41c1.52,0,3.7-.35,3.77-2.51,0-1-.92-1.89-2.29-1.89-2.89,0-4.32,2.86-4.71,4.4Z"/></g></g></svg>