<svg xmlns="http://www.w3.org/2000/svg" viewBox="0 0 535.4 65.4"><path d="M22.7 1.5h2.8c.9 0 2.1 0 3.4-.1.2 0 .3.2.3.5s-.1.4-.3.4c-1.4.1-2.2.3-2.5.8S26 4.4 26 5.6V6l.1 12.8c0 1.7.1 2.8.1 3.4.1.4.2.7.4 1 .2.2.5.4.8.5.3.1.9.2 1.8.3.2 0 .3.2.3.4 0 .3-.1.4-.3.4-1.8-.1-3.2-.1-4.4-.1-1.1 0-2.5 0-4.2.1-.2 0-.2-.1-.2-.4 0-.2.1-.4.2-.4 1.4-.1 2.2-.4 2.5-.8.3-.4.4-1.4.4-3l-.1-15.3H23l-5 11.5c-1.1 2.5-2.3 5.2-3.4 8.2-.1.2-.3.3-.5.3s-.3-.1-.4-.3c-1.2-3-2.2-5.5-3.1-7.6L5.3 4.9h-.4l-.1 14v.5c0 2 .2 3.3.5 3.8.2.2.4.4.8.5.3.1.9.2 1.7.3.2 0 .3.2.3.4 0 .3-.1.4-.3.4-1.6-.1-2.8-.1-3.6-.1-1 0-2.3 0-3.7.1-.2 0-.3-.1-.3-.4 0-.3.1-.4.3-.4 1.2-.1 1.9-.4 2.2-.8.2-.4.4-.9.5-1.5.1-.6.1-1.5.2-2.8l.3-13.2v-.3c0-1.1-.1-1.9-.4-2.3-.3-.4-1.2-.7-2.6-.8-.2 0-.3-.2-.3-.4 0-.4.1-.5.3-.5 1.7.1 2.9.1 3.5.1h2.9c.4 1.3.8 2.5 1.3 3.7l4.5 10.7c.3.6.6 1.4 1 2.4.4 1.1.7 1.8.9 2.2.9-2.2 1.6-3.7 2-4.6l4.3-10.3c.6-1.2 1.1-2.6 1.6-4.1zm19.1 22c-.8.7-1.5 1.2-2.3 1.5-.7.2-1.5.4-2.4.4-1.2 0-2.2-.3-2.9-1-.6-.6-.9-1.4-.9-2.3 0-1.2.4-2.2 1.1-2.9.5-.5 1.9-1.1 3.9-1.8 1.2-.4 2.1-.7 2.6-1.1.5-.4.7-.8.7-1.3v-.9c0-2.3-.7-3.4-2.1-3.4-.9 0-1.7.3-2.2.8-.4.4-.6.9-.6 1.6 0 .4-.2.8-.7 1-.4.2-.9.4-1.5.4s-.9-.3-.9-.9c0-1 .7-1.9 2-2.7 1.2-.7 2.5-1.1 3.9-1.1 1.7 0 2.9.4 3.6 1.1.6.6.8 1.7.8 3.1l.1 7.2c0 1.9.4 2.8 1.2 2.8.3 0 .6-.1.8-.3.1-.1.2-.1.3-.1.1 0 .2.1.3.2.1.1.1.2.1.3 0 .1 0 .1-.1.2-.8.6-1.6.8-2.4.8-1.2.1-2-.5-2.4-1.6zm-.1-6.8c-.3.4-1.3.9-3 1.6-1 .4-1.8.8-2.2 1.4-.4.5-.6 1.1-.6 1.8 0 .8.3 1.4.8 1.9.5.4 1 .6 1.6.6 1 0 1.9-.3 2.5-.9.5-.5.8-1.1.8-1.9l.1-4.5zm13.7.5c.7-.7 1.3-1.2 1.7-1.6l1.9-1.9c.9-.9 1.4-1.6 1.4-1.9 0-.4-.5-.6-1.5-.6-.2 0-.3-.1-.3-.4 0-.2.1-.4.3-.4H62c1 0 2 0 2.9-.1.2 0 .3.1.3.4 0 .2-.1.4-.3.4-.7.1-1.3.2-1.9.5-.4.2-1.3.9-2.6 2.1l-1.7 1.5c-.7.6-1.1 1.1-1.3 1.3 1.8 2.1 3.5 4 5.2 5.7.7.7 1.4 1.2 1.9 1.5.3.2.8.3 1.5.3.2 0 .3.2.3.4s-.1.4-.3.4c-1.3-.1-2.2-.1-2.6-.1h-1.9c-.5-.7-.9-1.2-1.2-1.5-1.8-1.9-3.4-3.8-5-5.6v2.5c0 2 .1 3.1.2 3.4.2.3.8.5 1.9.6.2 0 .3.2.3.4s-.1.4-.3.4c-1.4 0-2.4-.1-3.1-.1-.8 0-2 0-3.4.1-.2 0-.3-.1-.3-.4s.1-.4.3-.4c1-.1 1.6-.3 1.7-.6.2-.3.3-1.4.3-3.3V5.6c0-1.5-.1-2.4-.3-2.7-.2-.4-.5-.6-.9-.6l-1.1.1c-.2 0-.3-.2-.3-.5 0-.2.1-.3.4-.4C52 1.2 53.5.8 55.1.2c.2 0 .4.1.4.2-.1 2.5-.2 5.1-.2 7.8v9zm17.2-1.7c0-1.4-.1-2.3-.3-2.7-.2-.4-.5-.7-1-.7l-1.2.1c-.2 0-.3-.1-.3-.4 0-.2.1-.3.4-.4 1.7-.4 3.1-.8 4.4-1.4.3 0 .4.1.4.3-.1 2.1-.1 4-.1 5.7v4.1c0 2 .1 3.2.2 3.4.2.3.8.5 2 .6.2 0 .3.2.3.4 0 .3-.1.4-.3.4-1.3 0-2.4-.1-3.2-.1-1 0-2.1 0-3.4.1-.2 0-.3-.1-.3-.4 0-.2.1-.3.3-.4 1-.1 1.6-.3 1.8-.6.2-.2.3-1.4.3-3.4v-4.6zm1-14.6c.5 0 .9.2 1.3.6.3.4.5.8.5 1.2 0 .5-.2 1-.6 1.4-.4.3-.8.5-1.2.5-.5 0-1-.2-1.4-.6-.3-.4-.5-.8-.5-1.2 0-.5.2-.9.7-1.3.3-.4.7-.6 1.2-.6zm12.8 12c1.3-2 3-3 5-3 1.5 0 2.6.4 3.5 1.3.8.8 1.2 1.9 1.2 3.2v5.7c0 2 .1 3.1.3 3.4.2.3.8.5 1.8.6.2 0 .3.2.3.4s-.1.4-.3.4c-1.3 0-2.3-.1-3.1-.1-.8 0-1.9 0-3.3.1-.2 0-.3-.1-.3-.4 0-.2.1-.3.3-.4.9-.1 1.5-.3 1.7-.6.2-.3.3-1.4.3-3.4v-5c0-.8-.1-1.4-.4-1.9-.6-1.1-1.5-1.7-2.8-1.7-1.3 0-2.4.6-3.3 1.9-.5.7-.7 1.5-.7 2.5v4.2c0 2 .1 3.1.2 3.4.1.2.3.3.5.4.2.1.7.1 1.3.2.2 0 .3.2.3.4s-.1.4-.3.4c-1.3 0-2.4-.1-3.1-.1-.9 0-2 0-3.3.1-.2 0-.3-.1-.3-.4 0-.2.1-.3.3-.4.9-.1 1.5-.3 1.7-.6.2-.3.3-1.4.3-3.4v-4.6c0-1.4-.1-2.3-.3-2.7-.2-.5-.5-.7-.9-.7l-1.1.1c-.2 0-.3-.2-.3-.5 0-.2.1-.3.4-.4 1.4-.3 2.8-.7 4.3-1.3.2 0 .4.1.4.3-.3 1.2-.3 2.1-.3 2.6zm18.9 11.7c-.8-.3-1.4-.6-1.7-1-.2-.3-.4-.8-.4-1.3 0-1.2 1-2.2 3-3.1-2.4-.8-3.6-2.3-3.6-4.5 0-1.5.6-2.8 1.9-3.7 1.1-.8 2.3-1.2 3.8-1.2 1 0 2 .2 3 .7 1.8 0 3.5-.1 5.1-.2.1 0 .2.1.2.2l-.4 1c-.1.2-.2.2-.3.2-.7-.1-1.8-.1-3.3-.1.9.8 1.3 1.8 1.3 2.9 0 1.6-.6 2.9-1.7 3.8-1 .8-2.3 1.2-3.9 1.2-.3 0-.6 0-.9-.1-1.3.7-1.9 1.4-1.9 2.2 0 .7.7 1 2.2 1l3.3-.1c3.7 0 5.5 1.4 5.5 4.2 0 1.8-.8 3.2-2.3 4.3-1.4 1-3.3 1.5-5.8 1.5-2 0-3.7-.5-4.9-1.4-1.1-.8-1.6-1.7-1.6-2.8.1-1.5 1.2-2.8 3.4-3.7zm1.1.4c-.2.1-.5.3-.8.5-.8.7-1.1 1.5-1.1 2.5 0 1.2.5 2.1 1.4 2.8.8.6 1.9.9 3.2.9 1.7 0 3-.5 4-1.4.8-.8 1.2-1.7 1.2-2.8 0-.9-.3-1.6-1-1.9-.6-.4-1.5-.5-2.8-.5h-2c-.7-.1-1.4-.1-2.1-.1zm1.9-14.3c-1 0-1.8.4-2.4 1.2-.5.7-.8 1.6-.8 2.8 0 1.4.3 2.4 1 3.2.6.6 1.3.9 2.1.9 1 0 1.7-.4 2.3-1.2.5-.7.8-1.7.8-2.9 0-1.3-.3-2.3-1-3-.5-.7-1.2-1-2-1zm27.5-.8c2.1 0 3.9.8 5.2 2.3 1.2 1.4 1.9 3.2 1.9 5.3 0 2.4-.8 4.4-2.3 5.9-1.3 1.3-2.9 1.9-4.8 1.9-2.1 0-3.9-.8-5.3-2.4-1.2-1.4-1.8-3.2-1.8-5.3 0-2.4.8-4.4 2.4-5.9 1.3-1.2 2.9-1.8 4.7-1.8zm0 .9c-1.4 0-2.4.6-3.2 1.9-.7 1.2-1 2.8-1 4.9 0 2.4.4 4.2 1.3 5.3.7.9 1.7 1.4 2.9 1.4 1.4 0 2.5-.6 3.3-1.9.7-1.2 1.1-2.8 1.1-4.8 0-2.4-.5-4.2-1.4-5.4-.8-.9-1.8-1.4-3-1.4zm23 14.5c-.2 0-.3-.1-.3-.3 0-1.2.1-2.1.1-2.7-1.2 2-2.8 3-5 3-1.5 0-2.6-.4-3.5-1.3-.8-.8-1.1-1.8-1.1-3.1V15c0-1.4-.1-2.3-.2-2.6-.2-.5-.5-.7-1-.7l-1 .1c-.2 0-.3-.1-.3-.4 0-.3.1-.4.4-.5 1.5-.2 2.9-.5 4.3-.9.2 0 .4.1.4.3-.1 1.9-.1 3.8-.1 5.6v3.3c0 1.4.1 2.3.4 2.9.5 1.1 1.5 1.7 2.8 1.7 1.3 0 2.4-.6 3.3-1.8.3-.4.5-.8.6-1.1.1-.3.1-.8.1-1.4V15c0-1.4-.1-2.3-.2-2.6-.2-.5-.5-.7-.9-.7l-1 .1c-.2 0-.3-.1-.3-.4 0-.3.1-.4.4-.5 1.7-.3 3.1-.5 4.3-.9.2 0 .4.1.4.3-.1 1.8-.1 3.6-.1 5.5v4.4c0 1.9.1 3 .2 3.3.2.3.6.5 1.3.5h.6c.2 0 .3.2.3.4s-.1.4-.3.4c-1.8.1-3.2.3-4.6.5zm13.8-11.9c1.4-2.3 2.8-3.5 4.2-3.5.6 0 1 .1 1.4.3.3.2.4.4.4.6 0 .5-.2 1-.6 1.5-.3.4-.7.6-1 .6-.2 0-.5-.1-.9-.3-.4-.2-.7-.3-.9-.3-.5 0-1 .4-1.6 1.2-.6.8-1 1.8-1 2.8v3.8c0 2 .1 3.1.2 3.4.2.3.8.5 2 .6.2 0 .3.2.3.4s-.1.4-.3.4c-1.3 0-2.4-.1-3.3-.1-.9 0-2 0-3.4.1-.2 0-.3-.1-.3-.4 0-.2.1-.3.3-.4.7-.1 1.1-.1 1.3-.2.2-.1.3-.2.4-.4.2-.3.3-1.4.3-3.4v-4.6c0-1.4-.1-2.3-.3-2.7-.2-.5-.5-.7-.9-.7l-1.2.1c-.2 0-.3-.1-.3-.4 0-.2.1-.4.4-.5 1.5-.3 3-.8 4.3-1.3.3 0 .4.1.4.3.1 1.3.1 2.3.1 3.1zm33.6-.2c1.4-2.2 3.1-3.3 5.1-3.3 1.4 0 2.6.4 3.4 1.3.8.8 1.1 1.9 1.1 3.2v5.7c0 2 .1 3.1.2 3.4.1.3.8.5 1.9.6.2 0 .3.2.3.4s-.1.4-.3.4c-1.2 0-2.3-.1-3.2-.1-.8 0-1.9 0-3.4.1-.2 0-.3-.1-.3-.4 0-.2.1-.3.3-.4 1-.1 1.6-.3 1.8-.6.2-.3.3-1.4.3-3.4v-5c0-.8-.1-1.4-.4-1.9-.5-1.1-1.4-1.7-2.6-1.7s-2.3.6-3.2 1.9c-.3.5-.5.8-.6 1.2-.1.3-.1.8-.1 1.3v4.2c0 1.9.1 3.1.3 3.4.2.3.8.5 2 .6.2 0 .3.2.3.4s-.1.3-.3.3c-1.4 0-2.4-.1-3.2-.1-.9 0-2 0-3.4.1-.2 0-.3-.1-.3-.3 0-.2.1-.4.3-.4 1-.1 1.6-.3 1.8-.6.2-.4.3-1.5.3-3.4V15c0-.8-.1-1.4-.3-1.8-.5-1.1-1.4-1.7-2.7-1.7-1.2 0-2.3.6-3.1 1.9-.5.7-.7 1.5-.7 2.5v4.2c0 2 .1 3.1.2 3.4s.8.5 1.9.6c.2 0 .2.2.2.4s-.1.4-.2.4c-1.3 0-2.4-.1-3.2-.1-.8 0-1.9 0-3.2.1-.2 0-.3-.1-.3-.4 0-.2.1-.3.3-.4 1-.1 1.5-.3 1.7-.6.2-.3.3-1.5.3-3.4v-4.6c0-1.3-.1-2.2-.2-2.6-.2-.5-.5-.7-1-.7l-1.1.1c-.2 0-.3-.2-.3-.5 0-.2.1-.3.4-.4 1.5-.3 2.9-.8 4.3-1.3.2 0 .4.1.4.3 0 1.2-.1 2.1-.1 2.7 1.4-2.1 3-3.1 4.9-3.1 1.1 0 2.1.3 2.8 1 .2.4.6 1.2.9 2.2zm18.4 3c-.1.5-.1 1-.1 1.3 0 2 .6 3.6 1.7 4.8.9 1 2 1.5 3.2 1.5 1.9 0 3.4-.8 4.5-2.3.1-.1.1-.1.2-.1s.3.1.4.2c.1.1.2.2.2.3 0 .1-.1.3-.2.4-1.4 2.1-3.2 3.1-5.5 3.1-2.2 0-4-.8-5.3-2.3-1.2-1.4-1.8-3.2-1.8-5.3 0-2.4.8-4.4 2.3-5.9 1.3-1.3 2.9-2 4.8-2 1.8 0 3.2.6 4.3 1.9 1 1.1 1.5 2.4 1.6 4 0 .2-.1.3-.2.4-.1.1-.2.2-.3.2-2.2-.1-4.4-.1-6.5-.1-1.5-.1-2.6-.1-3.3-.1zm.2-1.2h2.7c1.5 0 2.9 0 4.3-.1.2 0 .3-.1.3-.4-.1-1.2-.5-2.1-1.1-2.8-.6-.6-1.3-.9-2.1-.9-1 0-1.9.4-2.6 1.2-.7.8-1.2 1.8-1.5 3zm26-3.5V5.6c0-1.5-.1-2.4-.2-2.7-.2-.4-.5-.7-1-.7l-1.2.1c-.2 0-.2-.1-.2-.3 0-.3.1-.5.3-.5 1.3-.2 2.8-.7 4.5-1.3.2 0 .3.1.3.2-.1 3.2-.1 5.8-.1 7.8v12c0 2 .1 3.1.2 3.3.2.3.6.5 1.3.5h.6c.2 0 .3.1.3.4 0 .3-.1.4-.3.4-1.4.1-2.8.3-4.3.5-.2 0-.3-.1-.3-.3 0-1.2.1-2 .1-2.2-.5.8-1.2 1.5-2.1 1.9-.7.4-1.5.6-2.2.6-2.2 0-4-.8-5.2-2.4-1.1-1.4-1.6-3.1-1.6-5.3 0-2.5.8-4.5 2.3-6 1.3-1.2 2.9-1.9 4.9-1.9 1.4.1 2.8.7 3.9 1.8zm-4-.7c-1.4 0-2.5.7-3.4 2-.8 1.2-1.1 2.8-1.1 4.7 0 2.1.5 3.7 1.5 4.8.8 1 1.8 1.4 3 1.4 1.4 0 2.5-.6 3.3-1.7.4-.5.6-1.2.6-2.1v-5.4c0-.8-.2-1.4-.6-2-.9-1-2-1.7-3.3-1.7zm15.4 4.7c0-1.4-.1-2.3-.3-2.7-.2-.4-.5-.7-1-.7l-1.2.1c-.2 0-.3-.1-.3-.4 0-.2.1-.3.4-.4 1.7-.4 3.1-.8 4.4-1.4.3 0 .4.1.4.3-.1 2.1-.1 4-.1 5.7v4.1c0 2 .1 3.2.2 3.4.2.3.8.5 2 .6.2 0 .3.2.3.4 0 .3-.1.4-.3.4-1.3 0-2.4-.1-3.2-.1-1 0-2.1 0-3.4.1-.2 0-.3-.1-.3-.4 0-.2.1-.3.3-.4 1-.1 1.6-.3 1.8-.6.2-.2.3-1.4.3-3.4v-4.6zm1-14.6c.5 0 .9.2 1.3.6.3.4.5.8.5 1.2 0 .5-.2 1-.6 1.4-.4.3-.8.5-1.2.5-.5 0-1-.2-1.4-.6-.3-.4-.5-.8-.5-1.2 0-.5.2-.9.7-1.3.3-.4.7-.6 1.2-.6zm14.5 9c1.3 0 2.6.2 3.7.7.8.4 1.2.8 1.2 1.4 0 .7-.1 1.2-.4 1.5-.2.3-.4.4-.7.4-.4 0-.9-.5-1.5-1.5l-.2-.3c-.6-.9-1.3-1.3-2.2-1.3-1.3 0-2.3.7-3.1 2-.7 1.2-1 2.8-1 4.7 0 2 .5 3.5 1.6 4.8.9 1 1.9 1.5 3 1.5s2.1-.2 2.8-.6c.6-.3 1.1-.9 1.7-1.6l.2-.2c.2 0 .3.1.4.2.1.1.2.2.2.3 0 0 0 .1-.1.2-1.4 2.2-3.3 3.3-5.7 3.3-2.1 0-3.9-.8-5.2-2.4-1.2-1.4-1.8-3.2-1.8-5.3 0-2.4.8-4.4 2.3-5.9 1.4-1.3 3-1.9 4.8-1.9zm12.2 5.6c0-1.4-.1-2.3-.3-2.7-.2-.4-.5-.7-1-.7l-1.2.1c-.2 0-.3-.1-.3-.4 0-.2.1-.3.4-.4 1.7-.4 3.1-.8 4.4-1.4.3 0 .4.1.4.3-.1 2.1-.1 4-.1 5.7v4.1c0 2 .1 3.2.2 3.4.2.3.8.5 2 .6.2 0 .3.2.3.4 0 .3-.1.4-.3.4-1.3 0-2.4-.1-3.2-.1-1 0-2.1 0-3.4.1-.2 0-.3-.1-.3-.4 0-.2.1-.3.3-.4 1-.1 1.6-.3 1.8-.6.2-.2.3-1.4.3-3.4v-4.6zm.9-14.6c.5 0 .9.2 1.3.6.3.4.5.8.5 1.2 0 .5-.2 1-.6 1.4-.4.3-.8.5-1.2.5-.5 0-1-.2-1.4-.6-.3-.4-.5-.8-.5-1.2 0-.5.2-.9.7-1.3.4-.4.8-.6 1.2-.6zm12.8 12c1.3-2 3-3 5-3 1.5 0 2.6.4 3.5 1.3.8.8 1.2 1.9 1.2 3.2v5.7c0 2 .1 3.1.3 3.4.2.3.8.5 1.8.6.2 0 .3.2.3.4s-.1.4-.3.4c-1.3 0-2.3-.1-3.1-.1-.8 0-1.9 0-3.3.1-.2 0-.3-.1-.3-.4 0-.2.1-.3.3-.4.9-.1 1.5-.3 1.7-.6.2-.3.3-1.4.3-3.4v-5c0-.8-.1-1.4-.4-1.9-.6-1.1-1.5-1.7-2.8-1.7-1.3 0-2.4.6-3.3 1.9-.5.7-.7 1.5-.7 2.5v4.2c0 2 .1 3.1.2 3.4.1.2.3.3.5.4.2.1.7.1 1.3.2.2 0 .3.2.3.4s-.1.4-.3.4c-1.3 0-2.4-.1-3.1-.1-.9 0-2 0-3.3.1-.2 0-.3-.1-.3-.4 0-.2.1-.3.3-.4.9-.1 1.5-.3 1.7-.6.2-.3.3-1.4.3-3.4v-4.6c0-1.4-.1-2.3-.3-2.7-.2-.5-.5-.7-.9-.7l-1.1.1c-.2 0-.3-.2-.3-.5 0-.2.1-.3.4-.4 1.4-.3 2.8-.7 4.3-1.3.2 0 .4.1.4.3-.2 1.2-.3 2.1-.3 2.6zm18.6 3.3c-.1.5-.1 1-.1 1.3 0 2 .6 3.6 1.7 4.8.9 1 2 1.5 3.2 1.5 1.9 0 3.4-.8 4.5-2.3.1-.1.1-.1.2-.1s.3.1.4.2c.1.1.2.2.2.3 0 .1-.1.3-.2.4-1.4 2.1-3.2 3.1-5.5 3.1-2.2 0-4-.8-5.3-2.3-1.2-1.4-1.8-3.2-1.8-5.3 0-2.4.8-4.4 2.3-5.9 1.3-1.3 2.9-2 4.8-2 1.8 0 3.2.6 4.3 1.9 1 1.1 1.5 2.4 1.6 4 0 .2-.1.3-.2.4-.1.1-.2.2-.3.2-2.2-.1-4.4-.1-6.5-.1-1.5-.1-2.6-.1-3.3-.1zm.2-1.2h2.7c1.5 0 2.9 0 4.3-.1.2 0 .3-.1.3-.4-.1-1.2-.5-2.1-1.1-2.8-.6-.6-1.3-.9-2.1-.9-1 0-1.9.4-2.6 1.2-.7.8-1.2 1.8-1.5 3zm23.9-4.8c0 .7.1 1.9.3 3.5v.1c0 .1-.1.2-.4.2-.2 0-.3-.1-.3-.2-.7-2-2-3-3.7-3-.8 0-1.5.2-1.9.7-.4.4-.6 1-.6 1.6 0 .5.2 1 .6 1.4.4.4 1.2.8 2.3 1.3l1.2.5c1.5.6 2.5 1.3 3.1 2.1.5.6.7 1.4.7 2.4 0 1.5-.5 2.6-1.6 3.5-1 .8-2.2 1.2-3.8 1.2-1.4 0-2.8-.3-4.2-.8-.2-.8-.4-1.8-.7-3.2v-.3c0-.2.1-.3.4-.3.2 0 .3.1.4.2.5 1.1 1.1 1.9 2 2.6.7.5 1.5.8 2.3.8.9 0 1.7-.3 2.2-.9.5-.5.7-1.2.7-1.9s-.2-1.3-.7-1.7c-.4-.4-1.1-.9-2.1-1.3l-1.2-.5c-1.5-.7-2.5-1.3-3-2-.4-.6-.6-1.4-.6-2.4 0-1.2.5-2.1 1.4-2.8.8-.6 1.9-1 3.1-1 .6 0 1.3.1 2.2.3.4.1.8.1 1.3.1 0-.1.3-.2.6-.2zm24.3 13.3c-.8.7-1.5 1.2-2.3 1.5-.7.2-1.5.4-2.4.4-1.2 0-2.2-.3-2.9-1-.6-.6-.9-1.4-.9-2.3 0-1.2.4-2.2 1.1-2.9.5-.5 1.9-1.1 3.9-1.8 1.2-.4 2.1-.7 2.6-1.1.5-.4.7-.8.7-1.3v-.9c0-2.3-.7-3.4-2.1-3.4-.9 0-1.7.3-2.2.8-.4.4-.6.9-.6 1.6 0 .4-.2.8-.7 1-.4.2-.9.4-1.4.4-.6 0-.9-.3-.9-.9 0-1 .7-1.9 2-2.7 1.2-.7 2.5-1.1 3.9-1.1 1.7 0 2.9.4 3.6 1.1.6.6.8 1.7.8 3.1l-.1 7.1c0 1.9.4 2.8 1.2 2.8.3 0 .6-.1.8-.3.1-.1.2-.1.3-.1.1 0 .2.1.3.2.1.1.1.2.1.3 0 .1 0 .1-.1.2-.8.6-1.6.8-2.4.8-1.1.2-1.9-.4-2.3-1.5zm-.1-6.8c-.3.4-1.3.9-3 1.6-1 .4-1.8.8-2.2 1.4-.4.5-.6 1.1-.6 1.8 0 .8.3 1.4.8 1.9.5.4 1 .6 1.6.6 1 0 1.9-.3 2.5-.9.5-.5.8-1.1.8-1.9l.1-4.5zm15.6 5.1c.1-.4.5-1.3 1-2.7l1.6-4.3c.5-1.3.8-2.3.8-2.8 0-.3-.1-.6-.4-.7-.3-.1-.8-.2-1.5-.3-.2 0-.3-.2-.3-.4s.1-.4.3-.4c1.3 0 2.3.1 2.9.1.6 0 1.5 0 2.6-.1.2 0 .3.1.3.4 0 .2-.1.4-.3.4-.6.1-1.2.3-1.5.7-.4.5-1 1.5-1.6 3.1l-2.4 6c-.7 1.6-1.1 2.9-1.5 3.9-.7.3-1.1.5-1.2.5-.1 0-.2-.1-.2-.2-.4-1.2-.9-2.6-1.5-4.2l-2.2-6c-.7-1.8-1.2-2.9-1.6-3.3-.3-.3-.9-.5-1.7-.5-.2 0-.3-.2-.3-.4s.1-.4.3-.4c1.4 0 2.5.1 3.3.1.9 0 2.1 0 3.5-.1.2 0 .3.1.3.4 0 .2-.1.4-.3.4-1.2.1-1.9.3-1.9.9 0 .4.3 1.4.9 2.9l1.6 4.3c.4 1.1.7 1.9 1 2.7zm19.1 1.7c-.8.7-1.5 1.2-2.3 1.5-.7.2-1.5.4-2.4.4-1.2 0-2.2-.3-2.9-1-.6-.6-.9-1.4-.9-2.3 0-1.2.4-2.2 1.1-2.9.5-.5 1.9-1.1 3.9-1.8 1.2-.4 2.1-.7 2.6-1.1.5-.4.7-.8.7-1.3v-.9c0-2.3-.7-3.4-2.1-3.4-.9 0-1.7.3-2.2.8-.4.4-.6.9-.6 1.6 0 .4-.2.8-.7 1-.4.2-.9.4-1.4.4-.6 0-.9-.3-.9-.9 0-1 .7-1.9 2-2.7 1.2-.7 2.5-1.1 3.9-1.1 1.7 0 2.9.4 3.6 1.1.6.6.8 1.7.8 3.1l-.1 7.1c0 1.9.4 2.8 1.2 2.8.3 0 .6-.1.8-.3.1-.1.2-.1.3-.1.1 0 .2.1.3.2.1.1.1.2.1.3 0 .1 0 .1-.1.2-.8.6-1.6.8-2.4.8-1.1.2-1.9-.4-2.3-1.5zm-.1-6.8c-.3.4-1.3.9-3 1.6-1 .4-1.8.8-2.2 1.4-.4.5-.6 1.1-.6 1.8 0 .8.3 1.4.8 1.9.5.4 1 .6 1.6.6 1 0 1.9-.3 2.5-.9.5-.5.8-1.1.8-1.9l.1-4.5zm11.6-1.2c0-1.4-.1-2.3-.3-2.7-.2-.4-.5-.7-1-.7l-1.2.1c-.2 0-.3-.1-.3-.4 0-.2.1-.3.4-.4 1.7-.4 3.1-.8 4.4-1.4.3 0 .4.1.4.3-.1 2.1-.1 4-.1 5.7v4.1c0 2 .1 3.2.2 3.4.2.3.8.5 2 .6.2 0 .3.2.3.4 0 .3-.1.4-.3.4-1.3 0-2.4-.1-3.2-.1-1 0-2.1 0-3.4.1-.2 0-.3-.1-.3-.4 0-.2.1-.3.3-.4 1-.1 1.6-.3 1.8-.6.2-.2.3-1.4.3-3.4v-4.6zm.9-14.6c.5 0 .9.2 1.3.6.3.4.5.8.5 1.2 0 .5-.2 1-.6 1.4-.4.3-.8.5-1.2.5-.5 0-1-.2-1.4-.6-.3-.4-.5-.8-.5-1.2 0-.5.2-.9.7-1.3.4-.4.8-.6 1.2-.6zm10.3 19.2V5.6c0-1.4-.1-2.3-.3-2.7-.2-.4-.5-.7-1-.7l-1.2.1c-.2 0-.3-.1-.3-.4s.1-.4.4-.5c1.3-.3 2.8-.7 4.5-1.3.2 0 .3.1.3.3-.1 2-.1 4.6-.1 7.8V20c0 2 .1 3.1.3 3.4.2.3.8.5 1.9.6.2 0 .3.2.3.4s-.1.4-.3.4c-1.3 0-2.4-.1-3.1-.1-.9 0-2 0-3.4.1-.2 0-.3-.1-.3-.4s.1-.4.3-.4c1-.1 1.6-.3 1.8-.6.1-.3.2-1.5.2-3.3zm17.5 3.4c-.8.7-1.5 1.2-2.3 1.5-.7.2-1.5.4-2.4.4-1.2 0-2.2-.3-2.9-1-.6-.6-.9-1.4-.9-2.3 0-1.2.4-2.2 1.1-2.9.5-.5 1.9-1.1 3.9-1.8 1.2-.4 2.1-.7 2.6-1.1.5-.4.7-.8.7-1.3v-.9c0-2.3-.7-3.4-2.1-3.4-.9 0-1.7.3-2.2.8-.4.4-.6.9-.6 1.6 0 .4-.2.8-.7 1-.4.2-.9.4-1.4.4-.6 0-.9-.3-.9-.9 0-1 .7-1.9 2-2.7 1.2-.7 2.5-1.1 3.9-1.1 1.7 0 2.9.4 3.6 1.1.6.6.8 1.7.8 3.1l-.1 7.1c0 1.9.4 2.8 1.2 2.8.3 0 .6-.1.8-.3.1-.1.2-.1.3-.1.1 0 .2.1.3.2.1.1.1.2.1.3 0 .1 0 .1-.1.2-.8.6-1.6.8-2.4.8-1.1.2-1.9-.4-2.3-1.5zm-.1-6.8c-.3.4-1.3.9-3 1.6-1 .4-1.8.8-2.2 1.4-.4.5-.6 1.1-.6 1.8 0 .8.3 1.4.8 1.9.5.4 1 .6 1.6.6 1 0 1.9-.3 2.5-.9.5-.5.8-1.1.8-1.9l.1-4.5zm12.5-4.3c1.2-1.7 2.7-2.5 4.3-2.5 2.2 0 4 .8 5.2 2.3 1.1 1.3 1.6 3.1 1.6 5.4 0 2.5-.8 4.5-2.3 6-1.3 1.3-2.9 1.9-4.9 1.9-1.5 0-2.9-.6-4.2-1.8-.1-.1-.2-.1-.3-.1s-.2 0-.3.1l-.9 1.1c-.2.2-.4.3-.7.3-.2 0-.3-.1-.3-.4.2-2.1.2-4.4.2-6.9V5.6c0-1.4-.1-2.3-.2-2.7-.2-.4-.5-.7-.9-.7l-1.1.1c-.2 0-.2-.2-.2-.5 0-.2.1-.3.4-.4 1.4-.3 2.8-.7 4.3-1.3.2 0 .4.1.4.3-.1 2.6-.2 5.2-.2 7.8v4.2zm0 7.2c0 1.3.2 2.2.6 2.7.9 1.3 2 1.9 3.4 1.9s2.5-.7 3.3-2c.8-1.2 1.2-2.8 1.2-4.7 0-2-.5-3.6-1.5-4.8-.8-.9-1.8-1.4-3-1.4-1.3 0-2.4.6-3.4 1.7-.4.5-.6 1.1-.6 2v4.6zm17.4.5V5.6c0-1.4-.1-2.3-.3-2.7-.2-.4-.5-.7-1-.7l-1.2.1c-.2 0-.3-.1-.3-.4s.1-.4.4-.5c1.3-.3 2.8-.7 4.5-1.3.2 0 .3.1.3.3-.1 2-.1 4.6-.1 7.8V20c0 2 .1 3.1.3 3.4.2.3.8.5 1.9.6.2 0 .3.2.3.4s-.1.4-.3.4c-1.3 0-2.4-.1-3.1-.1-.9 0-2 0-3.4.1-.2 0-.3-.1-.3-.4s.1-.4.3-.4c1-.1 1.6-.3 1.8-.6.1-.3.2-1.5.2-3.3zm11.3-3.9c-.1.5-.1 1-.1 1.3 0 2 .6 3.6 1.7 4.8.9 1 2 1.5 3.2 1.5 1.9 0 3.4-.8 4.5-2.3.1-.1.1-.1.2-.1s.3.1.4.2c.1.1.2.2.2.3 0 .1-.1.3-.2.4-1.4 2.1-3.2 3.1-5.5 3.1-2.2 0-4-.8-5.3-2.3-1.2-1.4-1.8-3.2-1.8-5.3 0-2.4.8-4.4 2.3-5.9 1.3-1.3 2.9-2 4.8-2 1.8 0 3.2.6 4.3 1.9 1 1.1 1.5 2.4 1.6 4 0 .2-.1.3-.2.4-.1.1-.2.2-.3.2-2.2-.1-4.4-.1-6.5-.1-1.6-.1-2.7-.1-3.3-.1zm.2-1.2h2.7c1.5 0 2.9 0 4.3-.1.2 0 .3-.1.3-.4-.1-1.2-.5-2.1-1.1-2.8-.6-.6-1.3-.9-2.1-.9-1 0-1.9.4-2.6 1.2-.7.8-1.2 1.8-1.5 3zm23.3-3.3h-2c-.2 0-.3-.1-.3-.4 0-.3.1-.4.3-.5 1-.2 1.8-.7 2.4-1.3.6-.6 1-1.4 1.3-2.3.1-.2.2-.3.5-.3s.4.1.4.3c-.1 1.6-.1 2.7-.1 3.2 1.2 0 2.7 0 4.5-.1.1 0 .2.1.2.2l-.3.9c-.1.2-.2.2-.3.2-.8-.1-2.2-.1-4.1-.1l-.1 8.1c0 1.6.2 2.7.7 3.3.4.6 1 .9 1.7.9.8 0 1.5-.3 2.1-.9.1-.1.1-.1.2-.1s.2.1.4.2c.1.1.1.2.1.3 0 .1 0 .1-.1.2-1.1 1.2-2.2 1.8-3.5 1.8-1.4 0-2.4-.4-3.1-1.1-.7-.8-1-1.9-1-3.5l.1-4.5v-4.5zm18.1-1.8c2.1 0 3.9.8 5.2 2.3 1.2 1.4 1.9 3.2 1.9 5.3 0 2.4-.8 4.4-2.3 5.9-1.3 1.3-2.9 1.9-4.8 1.9-2.1 0-3.9-.8-5.3-2.4-1.2-1.4-1.8-3.2-1.8-5.3 0-2.4.8-4.4 2.4-5.9 1.4-1.2 2.9-1.8 4.7-1.8zm0 .9c-1.4 0-2.4.6-3.2 1.9-.7 1.2-1 2.8-1 4.9 0 2.4.4 4.2 1.3 5.3.7.9 1.7 1.4 2.9 1.4 1.4 0 2.5-.6 3.3-1.9.7-1.2 1.1-2.8 1.1-4.8 0-2.4-.5-4.2-1.4-5.4-.8-.9-1.7-1.4-3-1.4zM106.7 51.7h-2c-.2 0-.3-.1-.3-.4 0-.3.1-.4.3-.5 1-.2 1.8-.7 2.4-1.3.6-.6 1-1.4 1.3-2.3.1-.2.2-.3.5-.3s.4.1.4.3c-.1 1.6-.1 2.7-.1 3.2 1.2 0 2.7 0 4.5-.1.1 0 .2.1.2.2l-.3.9c-.1.2-.2.2-.3.2-.8-.1-2.2-.1-4.1-.1l-.1 8.1c0 1.6.2 2.7.7 3.3.4.6 1 .9 1.7.9.8 0 1.5-.3 2.1-.9.1-.1.1-.1.2-.1s.2.1.4.2c.1.1.1.2.1.3 0 .1 0 .1-.1.2-1.1 1.2-2.2 1.8-3.5 1.8-1.4 0-2.4-.4-3.1-1.1-.7-.8-1-1.9-1-3.5l.1-4.5v-4.5zm16 1.2c1.3-2 3-3 5.1-3 1.5 0 2.6.4 3.5 1.3.8.8 1.2 1.9 1.2 3.3v5.7c0 1.9.1 3.1.2 3.4.1.3.8.5 1.9.6.2 0 .3.2.3.4s-.1.4-.3.4c-1.3 0-2.4-.1-3.2-.1-.8 0-1.9 0-3.3.1-.2 0-.3-.1-.3-.4s.1-.4.3-.4c1-.1 1.6-.3 1.7-.6.2-.4.3-1.5.3-3.4V55c0-.8-.1-1.4-.3-1.8-.5-1.1-1.5-1.7-2.9-1.7s-2.5.6-3.4 1.8c-.5.7-.7 1.5-.7 2.5V60c0 2 .1 3.1.2 3.4s.8.5 1.9.6c.2 0 .3.2.3.4s-.1.4-.3.4c-1.4 0-2.4-.1-3.1-.1-.9 0-2 0-3.4.1-.2 0-.3-.1-.3-.4s.1-.4.3-.4c.7-.1 1.1-.1 1.3-.2.2-.1.3-.2.4-.4.2-.3.3-1.5.3-3.4V45.6c0-1.4-.1-2.3-.3-2.7-.2-.4-.5-.7-.9-.7l-1.1.1c-.2 0-.3-.1-.3-.4 0-.2.1-.4.4-.4 1.2-.3 2.7-.7 4.4-1.3.2 0 .4.1.4.2-.1 2.7-.2 5.3-.2 7.8v4.7zm23-3c2.1 0 3.9.8 5.2 2.3 1.2 1.4 1.9 3.2 1.9 5.3 0 2.4-.8 4.4-2.3 5.9-1.3 1.3-2.9 1.9-4.8 1.9-2.1 0-3.9-.8-5.3-2.4-1.2-1.4-1.8-3.2-1.8-5.3 0-2.4.8-4.4 2.4-5.9 1.3-1.2 2.9-1.8 4.7-1.8zm0 .9c-1.4 0-2.4.6-3.2 1.9-.7 1.2-1 2.8-1 4.9 0 2.4.4 4.2 1.3 5.3.7.9 1.7 1.4 2.9 1.4 1.4 0 2.5-.6 3.3-1.9.7-1.2 1.1-2.8 1.1-4.8 0-2.4-.5-4.2-1.4-5.4-.8-.9-1.8-1.4-3-1.4zm21-.6c0 .7.1 1.9.3 3.5v.1c0 .1-.1.2-.4.2-.2 0-.3-.1-.3-.2-.7-2-2-3-3.7-3-.8 0-1.5.2-1.9.7-.4.4-.6 1-.6 1.6 0 .5.2 1 .6 1.4.4.4 1.2.8 2.3 1.3l1.2.5c1.5.6 2.5 1.3 3.1 2.1.5.6.7 1.4.7 2.4 0 1.5-.5 2.6-1.6 3.5-1 .8-2.2 1.2-3.8 1.2-1.4 0-2.8-.3-4.2-.8-.2-.8-.4-1.8-.7-3.2v-.3c0-.2.1-.3.4-.3.2 0 .3.1.4.2.5 1.1 1.1 1.9 2 2.6.7.5 1.5.8 2.3.8.9 0 1.7-.3 2.2-.9.5-.5.7-1.2.7-1.9s-.2-1.3-.7-1.7c-.4-.4-1.1-.9-2.1-1.3l-1.2-.5c-1.5-.7-2.5-1.3-3-2-.4-.6-.6-1.4-.6-2.4 0-1.2.5-2.1 1.4-2.8.8-.6 1.9-1 3.1-1 .6 0 1.3.1 2.2.3.4.1.8.1 1.3.1 0-.1.3-.2.6-.2zm8.6 6c-.1.5-.1 1-.1 1.3 0 2 .6 3.6 1.7 4.8.9 1 2 1.5 3.2 1.5 1.9 0 3.4-.8 4.5-2.3.1-.1.1-.1.2-.1s.3.1.4.2c.1.1.2.2.2.3 0 .1-.1.3-.2.4-1.4 2.1-3.2 3.1-5.5 3.1-2.2 0-4-.8-5.3-2.3-1.2-1.4-1.8-3.2-1.8-5.3 0-2.4.8-4.4 2.3-5.9 1.3-1.3 2.9-2 4.8-2 1.8 0 3.2.6 4.3 1.9 1 1.1 1.5 2.4 1.6 4 0 .2-.1.3-.2.4s-.2.2-.3.2c-2.2-.1-4.4-.1-6.5-.1-1.5-.1-2.6-.1-3.3-.1zm.2-1.2h2.7c1.5 0 2.9 0 4.3-.1.2 0 .3-.1.3-.4-.1-1.2-.5-2.1-1.1-2.8-.6-.6-1.3-.9-2.1-.9-1 0-1.9.4-2.6 1.2-.7.8-1.2 1.8-1.5 3zm38.1 6.9c.2-.6.5-1.6 1-2.8l1.5-4.2c.4-1.3.7-2.2.7-2.7 0-.4-.1-.7-.4-.8-.2-.1-.7-.2-1.3-.3-.2 0-.3-.2-.3-.4s.1-.4.3-.4c1.2 0 2.1.1 2.9.1.5 0 1.4 0 2.6-.1.2 0 .3.1.3.4 0 .2-.1.4-.3.4-.8.1-1.3.3-1.7.7-.3.3-.7 1.3-1.4 3.1l-2.3 6c-.5 1.5-1 2.8-1.4 4-.6.3-1 .5-1.1.5-.1 0-.2-.1-.2-.2-.1-.5-.6-1.9-1.4-4.2l-1.3-3.7c-.5-1.5-.8-2.4-.8-2.5l-.9 2.4-1.5 3.8c-.6 1.7-1.1 3-1.5 3.9-.6.3-1 .5-1.1.5-.1 0-.2-.1-.2-.2-.5-1.6-.9-3-1.4-4.2l-2.1-6c-.6-1.8-1.1-2.8-1.4-3.2-.3-.3-.8-.5-1.6-.6-.2 0-.3-.2-.3-.4s.1-.3.3-.3c1.4 0 2.5.1 3.2.1.8 0 1.9 0 3.2-.1.2 0 .3.1.3.4 0 .2-.1.4-.3.4-.7 0-1.1.1-1.4.3-.2.1-.2.3-.2.6 0 .4.3 1.4.8 2.9l1.5 4.4c.2.6.5 1.5.8 2.5.1-.2.2-.5.3-.9.3-.7.5-1.3.7-1.8l1.3-3.4c.5-1.2.8-2 1-2.5-.3-1-.6-1.6-.9-1.8-.3-.2-.9-.4-1.6-.5-.2 0-.3-.2-.3-.4s.1-.4.3-.4c1.4 0 2.4.1 3.1.1.8 0 1.8 0 3.1-.1.2 0 .3.1.3.4 0 .2-.1.4-.3.4-.7 0-1.1.1-1.4.3-.2.1-.3.3-.3.6 0 .4.3 1.4.8 2.9l1.5 4.3c.2.8.5 1.7.8 2.7zm14.2-9c1.3-2 3-3 5.1-3 1.5 0 2.6.4 3.5 1.3.8.8 1.2 1.9 1.2 3.3v5.7c0 1.9.1 3.1.2 3.4.1.3.8.5 1.9.6.2 0 .3.2.3.4s-.1.4-.3.4c-1.3 0-2.4-.1-3.2-.1-.8 0-1.9 0-3.3.1-.2 0-.3-.1-.3-.4s.1-.4.3-.4c1-.1 1.6-.3 1.7-.6.2-.4.3-1.5.3-3.4V55c0-.8-.1-1.4-.3-1.8-.5-1.1-1.5-1.7-2.9-1.7s-2.5.6-3.4 1.8c-.5.7-.7 1.5-.7 2.5V60c0 2 .1 3.1.2 3.4s.8.5 1.9.6c.2 0 .3.2.3.4s-.1.4-.3.4c-1.4 0-2.4-.1-3.1-.1-.9 0-2 0-3.4.1-.2 0-.3-.1-.3-.4s.1-.4.3-.4c.7-.1 1.1-.1 1.3-.2.2-.1.3-.2.4-.4.2-.3.3-1.5.3-3.4V45.6c0-1.4-.1-2.3-.3-2.7-.2-.4-.5-.7-.9-.7l-1.1.1c-.2 0-.3-.1-.3-.4 0-.2.1-.4.4-.4 1.2-.3 2.7-.7 4.4-1.3.2 0 .4.1.4.2-.1 2.7-.2 5.3-.2 7.8v4.7zm23-3c2.1 0 3.9.8 5.2 2.3 1.2 1.4 1.9 3.2 1.9 5.3 0 2.4-.8 4.4-2.3 5.9-1.3 1.3-2.9 1.9-4.8 1.9-2.1 0-3.9-.8-5.3-2.4-1.2-1.4-1.8-3.2-1.8-5.3 0-2.4.8-4.4 2.4-5.9 1.3-1.2 2.9-1.8 4.7-1.8zm0 .9c-1.4 0-2.4.6-3.2 1.9-.7 1.2-1 2.8-1 4.9 0 2.4.4 4.2 1.3 5.3.7.9 1.7 1.4 2.9 1.4 1.4 0 2.5-.6 3.3-1.9.7-1.2 1.1-2.8 1.1-4.8 0-2.4-.5-4.2-1.4-5.4-.8-.9-1.8-1.4-3-1.4zm24.9 2.1c1.3-2 3-3 5-3 1.5 0 2.6.4 3.5 1.3.8.8 1.2 1.9 1.2 3.2v5.7c0 2 .1 3.1.3 3.4.2.3.8.5 1.8.6.2 0 .3.2.3.4s-.1.4-.3.4c-1.3 0-2.3-.1-3.1-.1-.8 0-1.9 0-3.3.1-.2 0-.3-.1-.3-.4 0-.2.1-.3.3-.4.9-.1 1.5-.3 1.7-.6.2-.3.3-1.4.3-3.4v-5c0-.8-.1-1.4-.4-1.9-.6-1.1-1.5-1.7-2.8-1.7-1.3 0-2.4.6-3.3 1.9-.5.7-.7 1.5-.7 2.5v4.2c0 2 .1 3.1.2 3.4.1.2.3.3.5.4.2.1.7.1 1.3.2.2 0 .3.2.3.4s-.1.4-.3.4c-1.3 0-2.4-.1-3.1-.1-.9 0-2 0-3.3.1-.2 0-.3-.1-.3-.4 0-.2.1-.3.3-.4.9-.1 1.5-.3 1.7-.6.2-.3.3-1.4.3-3.4v-4.6c0-1.4-.1-2.3-.3-2.7-.2-.5-.5-.7-.9-.7l-1.1.1c-.2 0-.3-.2-.3-.5 0-.2.1-.3.4-.4 1.4-.3 2.8-.7 4.3-1.3.2 0 .4.1.4.3-.3 1.2-.3 2.1-.3 2.6zm18.6 3.3c-.1.5-.1 1-.1 1.3 0 2 .6 3.6 1.7 4.8.9 1 2 1.5 3.2 1.5 1.9 0 3.4-.8 4.5-2.3.1-.1.1-.1.2-.1s.3.1.4.2c.1.1.2.2.2.3 0 .1-.1.3-.2.4-1.4 2.1-3.2 3.1-5.5 3.1-2.2 0-4-.8-5.3-2.3-1.2-1.4-1.8-3.2-1.8-5.3 0-2.4.8-4.4 2.3-5.9 1.3-1.3 2.9-2 4.8-2 1.8 0 3.2.6 4.3 1.9 1 1.1 1.5 2.4 1.6 4 0 .2-.1.3-.2.4s-.2.2-.3.2c-2.2-.1-4.4-.1-6.5-.1-1.6-.1-2.7-.1-3.3-.1zm.2-1.2h2.7c1.5 0 2.9 0 4.3-.1.2 0 .3-.1.3-.4-.1-1.2-.5-2.1-1.1-2.8-.6-.6-1.3-.9-2.1-.9-1 0-1.9.4-2.6 1.2-.8.8-1.2 1.8-1.5 3zm17.5 1.2c-.1.5-.1 1-.1 1.3 0 2 .6 3.6 1.7 4.8.9 1 2 1.5 3.2 1.5 1.9 0 3.4-.8 4.5-2.3.1-.1.1-.1.2-.1s.3.1.4.2c.1.1.2.2.2.3 0 .1-.1.3-.2.4-1.4 2.1-3.2 3.1-5.5 3.1-2.2 0-4-.8-5.3-2.3-1.2-1.4-1.8-3.2-1.8-5.3 0-2.4.8-4.4 2.3-5.9 1.3-1.3 2.9-2 4.8-2 1.8 0 3.2.6 4.3 1.9 1 1.1 1.5 2.4 1.6 4 0 .2-.1.3-.2.4s-.2.2-.3.2c-2.2-.1-4.4-.1-6.5-.1-1.6-.1-2.7-.1-3.3-.1zm.2-1.2h2.7c1.5 0 2.9 0 4.3-.1.2 0 .3-.1.3-.4-.1-1.2-.5-2.1-1.1-2.8-.6-.6-1.3-.9-2.1-.9-1 0-1.9.4-2.6 1.2-.8.8-1.2 1.8-1.5 3zm25.9-3.5v-5.9c0-1.5-.1-2.4-.2-2.7-.2-.4-.5-.7-1-.7l-1.2.1c-.2 0-.2-.1-.2-.3 0-.3.1-.5.3-.5 1.3-.2 2.8-.7 4.5-1.3.2 0 .3.1.3.2-.1 3.2-.1 5.8-.1 7.8v12c0 2 .1 3.1.2 3.3.2.3.6.5 1.3.5h.6c.2 0 .3.1.3.4 0 .3-.1.4-.3.4-1.4.1-2.8.3-4.3.5-.2 0-.3-.1-.3-.3 0-1.2.1-2 .1-2.2-.5.8-1.2 1.5-2.1 1.9-.7.4-1.5.6-2.2.6-2.2 0-4-.8-5.2-2.4-1.1-1.4-1.6-3.1-1.6-5.3 0-2.5.8-4.5 2.3-6 1.3-1.2 2.9-1.9 4.9-1.9 1.5.1 2.8.7 3.9 1.8zm-3.9-.7c-1.4 0-2.5.7-3.4 2-.8 1.2-1.1 2.8-1.1 4.7 0 2.1.5 3.7 1.5 4.8.8 1 1.8 1.4 3 1.4 1.4 0 2.5-.6 3.3-1.7.4-.5.6-1.2.6-2.1v-5.4c0-.8-.2-1.4-.6-2-1-1-2.1-1.7-3.3-1.7zm22.7.9h-2c-.2 0-.3-.1-.3-.4 0-.3.1-.4.3-.5 1-.2 1.8-.7 2.4-1.3.6-.6 1-1.4 1.3-2.3.1-.2.2-.3.5-.3s.4.1.4.3c-.1 1.6-.1 2.7-.1 3.2 1.2 0 2.7 0 4.5-.1.1 0 .2.1.2.2l-.3.9c-.1.2-.2.2-.3.2-.8-.1-2.2-.1-4.1-.1l-.1 8.1c0 1.6.2 2.7.7 3.3.4.6 1 .9 1.7.9.8 0 1.5-.3 2.1-.9.1-.1.1-.1.2-.1s.2.1.4.2c.1.1.1.2.1.3 0 .1 0 .1-.1.2-1.1 1.2-2.2 1.8-3.5 1.8-1.4 0-2.4-.4-3.1-1.1-.7-.8-1-1.9-1-3.5l.1-4.5v-4.5zm16.1 1.2c1.3-2 3-3 5.1-3 1.5 0 2.6.4 3.5 1.3.8.8 1.2 1.9 1.2 3.3v5.7c0 1.9.1 3.1.2 3.4.1.3.8.5 1.9.6.2 0 .3.2.3.4s-.1.4-.3.4c-1.3 0-2.4-.1-3.2-.1-.8 0-1.9 0-3.3.1-.2 0-.3-.1-.3-.4s.1-.4.3-.4c1-.1 1.6-.3 1.7-.6.2-.4.3-1.5.3-3.4V55c0-.8-.1-1.4-.3-1.8-.5-1.1-1.5-1.7-2.9-1.7s-2.5.6-3.4 1.8c-.5.7-.7 1.5-.7 2.5V60c0 2 .1 3.1.2 3.4s.8.5 1.9.6c.2 0 .3.2.3.4s-.1.4-.3.4c-1.4 0-2.4-.1-3.1-.1-.9 0-2 0-3.4.1-.2 0-.3-.1-.3-.4s.1-.4.3-.4c.7-.1 1.1-.1 1.3-.2.2-.1.3-.2.4-.4.2-.3.3-1.5.3-3.4V45.6c0-1.4-.1-2.3-.3-2.7-.2-.4-.5-.7-.9-.7l-1.1.1c-.2 0-.3-.1-.3-.4 0-.2.1-.4.4-.4 1.2-.3 2.7-.7 4.4-1.3.2 0 .4.1.4.2-.1 2.7-.2 5.3-.2 7.8v4.7zm18.6 3.3c-.1.5-.1 1-.1 1.3 0 2 .6 3.6 1.7 4.8.9 1 2 1.5 3.2 1.5 1.9 0 3.4-.8 4.5-2.3.1-.1.1-.1.2-.1s.3.1.4.2c.1.1.2.2.2.3 0 .1-.1.3-.2.4-1.4 2.1-3.2 3.1-5.5 3.1-2.2 0-4-.8-5.3-2.3-1.2-1.4-1.8-3.2-1.8-5.3 0-2.4.8-4.4 2.3-5.9 1.3-1.3 2.9-2 4.8-2 1.8 0 3.2.6 4.3 1.9 1 1.1 1.5 2.4 1.6 4 0 .2-.1.3-.2.4s-.2.2-.3.2c-2.2-.1-4.4-.1-6.5-.1-1.5-.1-2.6-.1-3.3-.1zm.2-1.2h2.7c1.5 0 2.9 0 4.3-.1.2 0 .3-.1.3-.4-.1-1.2-.5-2.1-1.1-2.8-.6-.6-1.3-.9-2.1-.9-1 0-1.9.4-2.6 1.2-.7.8-1.2 1.8-1.5 3zm28-1.8c1.4-2.2 3.1-3.3 5.1-3.3 1.4 0 2.6.4 3.4 1.3.8.8 1.1 1.9 1.1 3.2v5.7c0 2 .1 3.1.2 3.4.1.3.8.5 1.9.6.2 0 .3.2.3.4s-.1.4-.3.4c-1.2 0-2.3-.1-3.2-.1-.8 0-1.9 0-3.4.1-.2 0-.3-.1-.3-.4 0-.2.1-.3.3-.4 1-.1 1.6-.3 1.8-.6.2-.3.3-1.4.3-3.4v-5c0-.8-.1-1.4-.4-1.9-.5-1.1-1.4-1.7-2.6-1.7s-2.3.6-3.2 1.9c-.3.5-.5.8-.6 1.2-.1.3-.1.8-.1 1.3v4.2c0 1.9.1 3.1.3 3.4.2.3.8.5 2 .6.2 0 .3.2.3.4s-.1.3-.3.3c-1.4 0-2.4-.1-3.2-.1-.9 0-2 0-3.4.1-.2 0-.3-.1-.3-.3 0-.2.1-.4.3-.4 1-.1 1.6-.3 1.8-.6.2-.4.3-1.5.3-3.4V55c0-.8-.1-1.4-.3-1.8-.5-1.1-1.4-1.7-2.7-1.7-1.2 0-2.3.6-3.1 1.9-.5.7-.7 1.5-.7 2.5v4.2c0 2 .1 3.1.2 3.4s.8.5 1.9.6c.2 0 .2.2.2.4s-.1.4-.2.4c-1.3 0-2.4-.1-3.2-.1-.8 0-1.9 0-3.2.1-.2 0-.3-.1-.3-.4 0-.2.1-.3.3-.4 1-.1 1.5-.3 1.7-.6.2-.3.3-1.5.3-3.4v-4.6c0-1.3-.1-2.2-.2-2.6-.2-.5-.5-.7-1-.7l-1.1.1c-.2 0-.3-.2-.3-.5 0-.2.1-.3.4-.4 1.5-.3 2.9-.8 4.3-1.3.2 0 .4.1.4.3 0 1.2-.1 2.1-.1 2.7 1.4-2.1 3-3.1 4.9-3.1 1.1 0 2.1.3 2.8 1 .3.4.7 1.2.9 2.2z"/></svg>