<svg xmlns="http://www.w3.org/2000/svg" viewBox="0 0 149.85 42.9"><defs><style>.cls-1{fill:#008db8;}.cls-2{fill:#d6007f;}.cls-3{fill:#fff;}.cls-4{fill:#231815;}.cls-5{fill:#221714;}</style></defs><title>アセット 2</title><g id="レイヤー_2" data-name="レイヤー 2"><g id="レイヤー_1-2" data-name="レイヤー 1"><path class="cls-1" d="M64.47,9.17C57.6,4,46.6,0,35.75,0V1.19c11.52,0,20.85,9.07,20.85,20.26S47.26,41.7,35.75,41.7V42.9c10.86,0,21.85-4,28.72-9.17,4.61-3.44,7-7.78,7-12.28s-2.42-8.84-7-12.28"/><path class="cls-2" d="M35.75,41.7c-11.52,0-20.85-9.07-20.85-20.26S24.23,1.19,35.75,1.19h0V0C24.89,0,13.9,4,7,9.17c-4.61,3.44-7,7.78-7,12.28s2.42,8.84,7,12.28c6.87,5.13,17.86,9.17,28.72,9.17V41.7h0"/><path class="cls-3" d="M14.9,21.45c0,11.19,9.34,20.26,20.85,20.26h0c11.52,0,20.85-9.07,20.85-20.26S47.26,1.19,35.75,1.19h0c-11.52,0-20.85,9.07-20.85,20.26"/><path class="cls-4" d="M38.38,21.52c-.95-.51-2-.8-2-1.42,0-.34.22-.68.8-.68a2.54,2.54,0,0,1,2.08,1.48h1V18.56H39.12v.75a3.59,3.59,0,0,0-2.37-1c-1.62,0-3.08.85-3.08,2.37a2.78,2.78,0,0,0,1.85,2.6c1.6.84,2.27,1.09,2.27,1.75a.7.7,0,0,1-.79.66A2.34,2.34,0,0,1,35,24.17H33.77v2.55H35V26a4.16,4.16,0,0,0,2.45,1c2.25,0,3.06-1.45,3.06-2.57,0-1.69-1.11-2.31-2.08-2.83M48.15,21a2.43,2.43,0,0,0-2.54-2.61,4.11,4.11,0,0,0-2.73,1v-.75H41.76v2.36h1a2,2,0,0,1,1.61-1.25c.44,0,.8.3.8,1.08v.9a2.62,2.62,0,0,0-1.52-.47,2.74,2.74,0,0,0-2.46,3c0,1.52.74,2.71,2.24,2.71a2,2,0,0,0,1.75-1v.76H49V25.59h-.83Zm-3,3.35c0,.87-.36,1.09-.62,1.09-.42,0-.68-.32-.68-1.1,0-1.18.46-1.81.93-1.81.23,0,.38.15.38.46ZM25.27,25.49H22V20.9h1.68V22h1.43V18.56H23.64v1.12H22v-4h3.12v1.63h1.43V14.48h-9.3v1.22H18.3v9.79H17.21v1.22h9.5V23.66H25.27Zm6.56-6.93H27.68v1.12h1v5.91h-1v1.12h5.14V25.59h-1Zm-1.58-.71a1.73,1.73,0,1,0-1.73-1.73,1.73,1.73,0,0,0,1.73,1.73m23.62,7.75v-7H49.72v1.12h1v5.91h-1v1.12h5.14V25.59Zm-1.58-7.75a1.73,1.73,0,1,0-1.73-1.73,1.73,1.73,0,0,0,1.73,1.73"/><path class="cls-5" d="M96.82,12.75a6,6,0,0,1,3,4.6H97.59a4.09,4.09,0,0,0-1.66-2.68,5.64,5.64,0,0,0-3.18-.84,5,5,0,0,0-3.84,1.75,7.6,7.6,0,0,0-1.56,5.2,8.44,8.44,0,0,0,1.29,4.87,4.71,4.71,0,0,0,4.19,1.88A5.29,5.29,0,0,0,96.5,26.2,5.58,5.58,0,0,0,98,21.94H92.75V20.06h7.36v9H98.65l-.55-2.16a8.51,8.51,0,0,1-2,1.76,7.43,7.43,0,0,1-3.74.84,7.21,7.21,0,0,1-5-1.93A9.24,9.24,0,0,1,85,20.91a9.61,9.61,0,0,1,2.25-6.7,7.1,7.1,0,0,1,5.53-2.37A8.39,8.39,0,0,1,96.82,12.75Z"/><path class="cls-5" d="M103.62,12.27h2.05V29h-2.05Z"/><path class="cls-5" d="M117.61,18a6.16,6.16,0,0,1,1.62,4.63,8,8,0,0,1-1.43,4.88,5.15,5.15,0,0,1-4.43,1.93,5,5,0,0,1-4-1.7,6.76,6.76,0,0,1-1.47-4.58,7.31,7.31,0,0,1,1.55-4.9,5.19,5.19,0,0,1,4.17-1.82A5.48,5.48,0,0,1,117.61,18Zm-1.28,8.12a7.76,7.76,0,0,0,.75-3.44,6.17,6.17,0,0,0-.54-2.78,3,3,0,0,0-3-1.69,2.91,2.91,0,0,0-2.71,1.44,6.71,6.71,0,0,0-.85,3.46,5.83,5.83,0,0,0,.85,3.25,3,3,0,0,0,2.68,1.3A2.8,2.8,0,0,0,116.33,26.15Z"/><path class="cls-5" d="M121.58,12.21h2v6.08a4.5,4.5,0,0,1,3.65-1.8,4.79,4.79,0,0,1,3.72,1.57,6.67,6.67,0,0,1,1.43,4.63A7.91,7.91,0,0,1,131,27.5a4.58,4.58,0,0,1-3.91,1.92,4,4,0,0,1-2.36-.67,5.68,5.68,0,0,1-1.23-1.28V29h-1.89Zm7.85,14.07a6.5,6.5,0,0,0,.83-3.49,5.71,5.71,0,0,0-.83-3.19A2.74,2.74,0,0,0,127,18.33a3.41,3.41,0,0,0-2.47,1,4.65,4.65,0,0,0-1.06,3.42,7.54,7.54,0,0,0,.43,2.8,3,3,0,0,0,3,2A2.75,2.75,0,0,0,129.43,26.28Z"/><path class="cls-5" d="M141.29,21.63a1.12,1.12,0,0,0,.95-.59,1.82,1.82,0,0,0,.14-.79,1.68,1.68,0,0,0-.75-1.53,4,4,0,0,0-2.13-.48,2.7,2.7,0,0,0-2.28.87,2.88,2.88,0,0,0-.49,1.43h-1.92a3.54,3.54,0,0,1,1.46-3.15,6,6,0,0,1,3.26-.89,6.64,6.64,0,0,1,3.5.82,2.79,2.79,0,0,1,1.33,2.56v7a.9.9,0,0,0,.13.51.63.63,0,0,0,.55.19l.31,0,.37-.05v1.52a5.72,5.72,0,0,1-.73.17,5.34,5.34,0,0,1-.68,0,1.69,1.69,0,0,1-1.54-.75,2.9,2.9,0,0,1-.35-1.13,5.23,5.23,0,0,1-1.8,1.43,5.58,5.58,0,0,1-2.59.6,3.85,3.85,0,0,1-2.78-1,3.42,3.42,0,0,1-1.08-2.58,3.32,3.32,0,0,1,1.06-2.63A5.05,5.05,0,0,1,138,22ZM137,27.18a2.41,2.41,0,0,0,1.54.51,4.69,4.69,0,0,0,2.1-.5,2.82,2.82,0,0,0,1.71-2.72V22.82a3.49,3.49,0,0,1-1,.4,8.13,8.13,0,0,1-1.16.23l-1.24.16a4.79,4.79,0,0,0-1.68.47,1.81,1.81,0,0,0-1,1.71A1.69,1.69,0,0,0,137,27.18Z"/><path class="cls-5" d="M147.8,12.27h2.05V29H147.8Z"/></g></g></svg>